#!OML:ASF Y:\EmotionMaleHayes\Project 1\Capture day 1\Session 1\Male1.ASF
:FULLY-SPECIFIED
:DEGREES
1
root 0 0 0 0 0 0
lowerback 0 0 0
upperback 0 0 0
thorax 0 0 0
lowerneck 0 0 0
upperneck 0 0 0
head 0 0 0
rclavicle 0 0
rhumerus 0 0 0
rradius 0
rwrist 0
rhand 0 0
rfingers 0
rthumb 0 0
lclavicle 0 0
lhumerus 0 0 0
lradius 0
lwrist 0
lhand 0 0
lfingers 0
lthumb 0 0
rfemur 0 0 0
rtibia 0
rfoot 0 0
rtoes 0
lfemur 0 0 0
ltibia 0
lfoot 0 0
ltoes 0
2
root 0 0 0 0 0 0
lowerback 0 0 0
upperback 0 0 0
thorax 0 0 0
lowerneck 0 0 0
upperneck 0 0 0
head 0 0 0
rclavicle 0 0
rhumerus 0 0 0
rradius 0
rwrist 0
rhand 0 0
rfingers 0
rthumb 0 0
lclavicle 0 0
lhumerus 0 0 0
lradius 0
lwrist 0
lhand 0 0
lfingers 0
lthumb 0 0
rfemur 0 0 0
rtibia 0
rfoot 0 0
rtoes 0
lfemur 0 0 0
ltibia 0
lfoot 0 0
ltoes 0
3
root 0 0 0 0 0 0
lowerback 0 0 0
upperback 0 0 0
thorax 0 0 0
lowerneck 0 0 0
upperneck 0 0 0
head 0 0 0
rclavicle 0 0
rhumerus 0 0 0
rradius 0
rwrist 0
rhand 0 0
rfingers 0
rthumb 0 0
lclavicle 0 0
lhumerus 0 0 0
lradius 0
lwrist 0
lhand 0 0
lfingers 0
lthumb 0 0
rfemur 0 0 0
rtibia 0
rfoot 0 0
rtoes 0
lfemur 0 0 0
ltibia 0
lfoot 0 0
ltoes 0
4
root 0 0 0 0 0 0
lowerback 0 0 0
upperback 0 0 0
thorax 0 0 0
lowerneck 0 0 0
upperneck 0 0 0
head 0 0 0
rclavicle 0 0
rhumerus 0 0 0
rradius 0
rwrist 0
rhand 0 0
rfingers 0
rthumb 0 0
lclavicle 0 0
lhumerus 0 0 0
lradius 0
lwrist 0
lhand 0 0
lfingers 0
lthumb 0 0
rfemur 0 0 0
rtibia 0
rfoot 0 0
rtoes 0
lfemur 0 0 0
ltibia 0
lfoot 0 0
ltoes 0
5
root -29.2422 17.0105 0.735202 28.1134 87.1039 32.8811
lowerback 9.91091 2.33275 -3.54876
upperback 0.0451698 2.69946 -0.305058
thorax -5.66495 1.4309 1.27747
lowerneck -20.0506 0.940039 3.78358
upperneck 19.8099 0.606383 -1.62916
head 9.59667 0.415031 -1.10203
rclavicle 8.90299e-015 -1.0138e-014
rhumerus 0 0 0
rradius 0
rwrist 0
rhand 0 0
rfingers 0
rthumb 0 0
lclavicle 8.90299e-015 -1.0138e-014
lhumerus -34.4794 -7.04577 91.1032
lradius 26.1699
lwrist -11.6821
lhand 5.43949 -5.90494
lfingers 7.12502
lthumb 30.7891 21.5365
rfemur 11.9993 -5.30509 14.4975
rtibia 7.56362
rfoot -18.8883 -5.43419
rtoes 4.60441
lfemur 12.607 0.668784 -14.3745
ltibia 4.52163
lfoot -13.9391 15.3624
ltoes -15.0563
6
root -29.2561 17.0117 0.732106 23.7778 86.5697 28.5669
lowerback 10.0805 2.51988 -3.57085
upperback 0.0161716 2.93667 -0.328788
thorax -5.80322 1.54955 1.22079
lowerneck -20.0117 0.934362 3.72256
upperneck 19.777 0.606944 -1.58013
head 9.57768 0.416118 -1.07461
rclavicle 1.13171e-014 -1.65985e-014
rhumerus -35.6875 7.62523 -93.1921
rradius 30.7879
rwrist 2.18214
rhand -8.48742 -32.9055
rfingers 7.12502
rthumb 17.4398 -62.1431
lclavicle 1.13171e-014 -1.65985e-014
lhumerus -34.3478 -7.27762 91.2084
lradius 25.8475
lwrist -11.4852
lhand 4.49669 -6.41304
lfingers 7.12502
lthumb 29.8898 21.1941
rfemur 11.6567 -5.19375 14.3983
rtibia 7.96215
rfoot -18.9869 -5.00367
rtoes 4.96332
lfemur 12.6686 1.07797 -14.4201
ltibia 4.57461
lfoot -14.1022 15.4458
ltoes -14.7259
7
root -29.2485 17.0088 0.73811 25.4129 86.8876 30.1482
lowerback 9.92785 2.3858 -3.60633
upperback 0.0282453 2.76553 -0.236016
thorax -5.70214 1.46631 1.37068
lowerneck -20.0465 0.957065 3.55948
upperneck 19.813 0.670911 -1.50918
head 9.5976 0.441852 -1.01416
rclavicle 2.05626e-014 1.78906e-015
rhumerus -35.6347 7.73233 -93.099
rradius 30.6701
rwrist 2.23818
rhand -8.5336 -32.5889
rfingers 7.12502
rthumb 17.3954 -61.8306
lclavicle 2.05626e-014 1.78906e-015
lhumerus -34.2846 -7.12376 91.2717
lradius 25.7091
lwrist -11.5089
lhand -10.546 -19.9226
lfingers 7.12502
lthumb 15.4579 9.47934
rfemur 11.818 -5.12845 14.5889
rtibia 7.71097
rfoot -19.092 -5.40223
rtoes 5.30352
lfemur 12.4976 1.23439 -14.1599
ltibia 4.75548
lfoot -14.1127 14.9012
ltoes -14.5468
8
root -29.254 17.0099 0.733232 20.9734 86.57 25.7715
lowerback 10.0728 2.49971 -3.48896
upperback 0.0180373 2.92612 -0.200782
thorax -5.79899 1.54345 1.31088
lowerneck -20.0784 0.972671 3.54312
upperneck 19.872 0.70548 -1.54252
head 9.62512 0.453372 -1.01849
rclavicle 3.43494e-014 -1.31198e-014
rhumerus -35.6088 7.75285 -93.069
rradius 30.636
rwrist 2.28622
rhand -8.47637 -32.5435
rfingers 7.12502
rthumb 17.4504 -61.7802
lclavicle 3.43494e-014 -1.31198e-014
lhumerus -34.308 -7.01648 91.2786
lradius 25.7503
lwrist -11.5363
lhand 0.207613 -9.96884
lfingers 7.12502
lthumb 25.7892 18.3032
rfemur 11.6699 -4.98803 14.6736
rtibia 7.92793
rfoot -18.9674 -5.21648
rtoes 4.5823
lfemur 12.6782 1.3325 -14.1075
ltibia 4.63438
lfoot -14.199 15.1809
ltoes -14.401
